<svg width="260" height="125" viewBox="0 0 260 125" fill="none" xmlns="http://www.w3.org/2000/svg">
<g clip-path="url(#clip0_311_3)">
<path d="M20.215 72.0146C34.9607 78.8248 60.234 89.4885 74.6332 74.2232C81.6316 66.8039 88.0376 61.9797 87.486 51.0621C86.3646 28.8636 51.8095 38.2559 52.0502 58.4104C52.5325 98.7848 91.9546 120.886 125.718 102.068C141.334 93.3648 152.038 77.2413 153.043 59.2116C153.516 50.7411 150.156 38.6316 138.742 40.8783C113.34 45.8782 113.148 81.1523 132.934 93.9776C164.788 114.625 202.451 83.2209 208.644 51.5119C208.68 51.3257 212.304 27.627 208.668 29.5798C201.485 33.4377 191.378 57.1161 196.615 50.8663C201.803 44.6751 201.244 36.8153 203.551 29.9191C204.624 26.7137 229.79 41.2524 234.71 43.5352" stroke="#1C1C1C" stroke-width="5" stroke-linecap="round"/>
</g>
<defs>
<clipPath id="clip0_311_3">
<rect width="260" height="125" fill="white"/>
</clipPath>
</defs>
</svg>
