<svg fill="none" height="198" viewBox="0 0 1739 198" width="1739" xmlns="http://www.w3.org/2000/svg" xmlns:xlink="http://www.w3.org/1999/xlink"><clipPath id="a"><path d="m0 0h1739v198h-1739z"/></clipPath><g clip-path="url(#a)" fill="#ebfa32"><path d="m1211.83 92.952-13.28 3.456c-7.2 1.872-14.18.324-21.88.828-2.27.144-3.6 2.412-6.12 2.772-23.18 3.312-42.22-6.552-51.22 11.808l-13.46 27.432c-1.87 3.816-3.67 11.376-10.83 11.052-3.71-.18-9.32-7.74-8.32-12.384 3.96-18.18 17.03-29.34 10.22-35.928-1.54-1.476-4.67-3.672-7.99-4.572-6.8-1.836-8.92-12.42-3.56-15.516 1.73-1.008 3.96-1.368 4.68-2.736 6.51-1.188 27.21.936 31.85-5.112 4.36-5.724 7.74-11.448 10.19-18.9l3.63-10.908c1.66-5.04 4.65-6.48 8.28-6.516 4.21-.036 9.97.252 10.69 6.372 2.7 22.716-7.49 16.704-9.32 24.732-3.17 13.86 28.97 10.188 40.71 6.948 7.23-2.016 14.97 1.728 20.91-1.116s56.9-11.916 70.32-15.336l12.39-3.168c6.22-1.584 14.39 3.132 14.36 11.232 0 9.828-11.95 14.364-19.66 18.54-6.91 3.744-35.27 32.868-19.97 30.42 2.52-.396 4.5-1.98 6.44-3.6l18.29-15.156c-5.04 4.176 22.78-14.148 19.11-12.924 4.71-1.584 26.45-26.964 40.6-21.204 3.67 26.136-12.17 22.392-18.58 36.828-3.96 8.928-14.97 23.328-6.91 25.056 3.13.684 3.96 2.376 5.15 3.312-.22-.18 17.56-4.032 20.51-5.292l9.43-3.996 15.7-12.852c17.88-14.688 22.31 3.708 34.51-15.516 6.41-10.08 24.12-26.28 33.76-31.068l17.31-8.532c2.63-1.296 7.02-2.736 11.2-2.988l30.16-1.908c16.27-1.044 38.44-37.65604 44.88-40.03204 7.38-2.7 12.81-8.568 21.85-5.580004-1.01 28.908044 5.04 11.700044-12.53 33.948044l-12.24 15.48c-2.59 3.276-4.64 6.012-6.4 9.36l-3.31 6.48c-1.15 2.232-1.66 4.392-3.35 6.48l-12.13 15.084c-1.98 2.448.22 6.372.07 9.576 11.02 2.736 37.87-11.952 46.86-18.756l12.17-9.216c2.09-1.584 3.89-2.592 6.73-3.456-5.69 1.728 54.17-40.14 56.29-13.86.83 10.512-9.75 16.812-11.59 24.552-.29 1.26-16.27 44.424-21.63 45.648-5.83 1.296-12.06.468-13.93-5.616-3.17-10.332 16.85-33.516 7.02-37.944-4.28-1.908-8.06 1.44-10.29 3.276l-18.43 15.12c-3.28 2.7-6.48 4.212-9.68 6.624l-12.2 9.144-6.52 3.492c-15.62 8.388-18.5 13.608-31.42 12.78-27.78-1.764-20.05-25.308-32.72-25.776-8.71-.324-4.64 9.972-26.38 25.056l-9.97 6.912c-4.57 3.168-8.35 6.624-14.25 7.128-10.73.972-12.99 10.008-26.17 2.016-27.78-16.884 3.32 1.44-21.19-19.224-8.97 4.788-11.92 12.132-18.97 15.768l-6.8 3.528c-5.55 2.844-20.59 7.02-20.38 6.912-13.96 6.336-34.01-1.476-38.54-12.996-2.05-5.184 1.83-11.7-1.01-14.94-4-4.608-16.23 4.608-21.27 8.388l-12.17 9.144c-4.71 3.528-24.07 9.864-23.75 9.936-2.77-.432-12.67-4.896-16.3-10.98-12.71-21.492 38.36-48.924 29.72-54.036-7.09-4.176-26.95 3.744-39.41 6.984zm205.44 26.388c14.68 2.844 24.33-10.404 35.05-15.876 7.24-3.708 11.63-10.656 17.93-16.632 2.01-1.908.61-7.632.18-11.34-.43-3.528-5.36-3.456-7.27-3.132 4.86-.828-9 4.788-11.23 6.48l-12.17 9.036-9.32 6.408c-2.73 1.872-4.5 3.924-6.51 6.48l-9.32 11.88c-2.06 2.628.21 6.228 2.62 6.696z"/><path d="m776.585 152.64c-4.643.684-8.638 3.204-13.065 3.528l-23.754 1.764c-3.527.252-6.37 1.62-10.689 2.772l-12.597 3.456c-7.919 2.16-25.411 11.16-29.909 1.26-2.376-5.184-1.656-14.364 0-19.656 4.355-13.86-1.224-4.464 11.805-20.052l17.996-21.564c2.699-3.24 4.786-6.048 6.514-9.396l3.419-6.696c3.167-6.156 28.289-33.66 30.089-41.58 3.815-16.776 5.651-18.54 12.561-22.752 4.031-2.484 15.98 2.052 16.844 9.828 1.224 10.764-14.576 22.86-19.363 33.048-4.067 8.676-33.436 29.592-18.824 31.32 8.782 1.044 25.59-5.544 29.765-8.604 4.463-3.276 11.697 1.008 16.484-1.62 19.616-10.656 51.576 14.076 51.36 27.216-.108 6.012-11.265 19.512-18.716 23.256l-17.455 8.784-14.577 3.096-17.996 2.592zm36.388-41.4c-1.836-2.412-14.721-6.336-23.071-3.276-3.635 1.332-19.219 5.22-21.523 6.336l-27.353 13.608c-2.448 1.224-9.61 2.736-8.35 8.028 1.259 5.292 10.941 2.088 15.26.108-.288.108 79.289-5.868 65.037-24.804z"/><path d="m269.683 169.416c.828-.288-25.59 13.428-30.448 8.64-2.304-2.268-4.391-1.368-7.523-2.412-12.093-4.068-15.764-21.996-15.836-22.104l-3.239-7.344c-1.008-2.268 7.198-7.308 2.843-22.248-4.931-4.464-8.89.9-12.921 4.176 10.618-8.568-36.639 21.204-27.065 16.884-12.813 5.76-29.369 38.736-37.719 36.972-12.849-2.736-7.523-19.908-5.147-26.568 2.015-5.652 5.723-9.432 8.386-13.392 8.998-13.5 6.37-45.828 13.605-52.632 1.367-1.296 4.283-1.872 6.766-3.312 3.923-2.268 13.209 3.096 13.785 8.1.612 5.508.72 8.712 3.599 13.716 5.399 9.396 24.006-6.804 24.762-7.164l17.168-8.208c7.306-3.492 17.456-.972 25.914-.396 6.298.252 3.959 21.096 3.095 24.228l-3.131 11.52c-1.512 5.544-8.998 13.896-4.211 18.576 5.435 5.256 27.821-2.34 39.663-11.268l12.309-9.288c5.866-4.428 32.428-24.012 31.636-5.904-5.183 6.372-11.445 14.256-19.111 18.288-8.89 4.68-12.741 14.724-21.739 18.648-6.695 2.916-9.034 10.404-15.477 12.528z"/><path d="m663.684 110.34c-2.232 9.216-28.505 25.776-31.493 27.9l-9.069 6.372c6.658-4.68-66.621 27.684-72.487 9.036-.684-2.232-2.556-6.696-3.995-7.848-4.391-3.636-14.181.504-20.336-1.512-.647-28.728-2.123-7.74 8.027-28.836l4.031-8.388c2.447-5.076 16.232-20.052 16.196-28.584 0-3.312 5.83-4.428 12.129-18.144 3.491-7.596 2.231-14.4 4.067-20.772 2.231-7.812 9.466-15.444 16.304-12.924 5.003 1.836 9.754 4.176 10.726 7.164 3.347 10.368-13.389 28.656-20.156 47.124-1.907 5.22-8.71 8.1-10.401 15.012-1.044 4.176 5.183 7.92 9.25 4.752l11.805-9.108c-4.967 3.816 21.739-12.672 15.692-9.828l17.168-8.1c9.25-4.356 21.523-.288 32.212-.936 2.268 2.412 3.671 5.868 7.127 6.228 9.537.9 6.226 18.72 5.039 23.616l-1.872 7.704zm-80.981 25.596c4.427-3.78 9.574-3.996 13.965-4.284 7.99-4.896 15.008-8.1 23.61-11.916 9.034-8.424 22.891-16.488 17.564-27.396-2.159-8.028-51.828 21.492-55.571 24.048l-9.394 6.48c-3.671 2.52-6.622 5.472-10.437 9 1.907 3.816 4.139 3.78 7.882 6.912 3.635-2.088 6.91-5.076 12.381-2.88z"/><path d="m406.669 169.524c-6.586-.396-4.391-13.212-23.502-8.532-3.6 5.976-27.282 14.724-31.313 10.728 2.591 2.556-25.338-7.992-18.824-22.572 3.636-8.136 2.484-14.04 20.588-26.28 3.599-2.448 39.266-20.052 42.434-21.096l10.905-3.564c10.437-3.384 30.125-10.548 39.842-5.616 7.343 3.708 5.939 18.72-1.331 20.448-4.571 1.08-16.592 17.172-13.641 23.112 2.627 5.328 9.358 1.764 12.669-.576l9.79-6.84 18.283-15.264c2.088-1.728 7.343-.18 9.106.36.468 3.132 1.98 9.036-.072 10.98-4.967 7.128-37.215 34.272-39.806 35.244-20.731 7.74-2.052 11.484-35.056 9.468zm-12.561-37.656c2.087-4.284-.936-7.776-4.355-5.58-7.738 5.004-35.56 15.912-25.59 16.74 3.059 5.652 27.929-7.056 29.945-11.16z"/><path d="m29.6917 195.696c-6.5144 2.052-11.6252 3.852-18.0677.252-5.97458-3.384-13.71275-7.524-11.157355-17.352.935775-3.636 5.614665-6.948 9.105845-9.504 5.57871-4.104 10.61751-2.556 14.14461.396 9.6098-2.952 12.957-12.492 13.3889-19.62l1.6556-27.036c-.252 3.888 2.8433-15.66 5.4707-19.188 10.9414-14.868 24.1862-26.316 39.2307-32.112 9.6097-3.708 16.664-1.8 26.49 1.224 5.974 1.836 6.442 5.688 6.442 10.908-.036 13.248-24.546 9.18-34.9835 13.932-3.4192 1.548-5.0028 5.148-8.9619 6.408-6.4065 2.052-9.1058 7.812-11.5173 13.536-8.8539 20.88-1.2237 29.016-5.2547 42.588-7.3783 24.696-.252 27.468-25.9499 35.568z"/><path d="m1002.68 161.496c-9.75 3.06-24.074 2.988-28.753-7.272-2.628-5.76.072-11.808 2.375-14.616 7.882-9.756 18.536-1.152 25.378-5.94 13.42-9.396-6.518-35.136 1.04-57.168l2.56-7.416c1.69-4.968 7.19-10.044 12.05-12.42l8.21-4.032c15.44-7.56 17.6-11.952 29.3-5.58 4.46 2.412 6.47 4.356 6.44 8.208-.15 13.968-1.73 6.624-29.26 15.876-21.06 7.056-5.58 37.692-3.35 46.152 1.84 6.876 2.12 16.236.07 22.536-4.17 12.888-14.86 18.18-26.09 21.708z"/><path d="m1721.37 131.328c-4.94.972-11.85 1.512-14.62-.36-13.67-9.18-13.93-21.384-14.61-22.896-7.56-16.8479 2.92-29.5199 4.39-39.0599 1.55-10.044 22.46-15.624 32.5-11.304s9.14 16.092 4.75 22.68c13.43 20.4839-1.8 48.8519-12.38 50.9399zm-5.62-33.9479c0-1.4041-1.15-2.556-2.55-2.556-1.41 0-2.56 1.1519-2.56 2.556 0 1.4039 1.15 2.556 2.56 2.556 1.4 0 2.55-1.1521 2.55-2.556z"/><path d="m1680.3 3.27599c6.05 1.044 3.28 14.25601 2.02 15.94801-2.92 3.816-13.75 5.832-19.87-.792-2.59-2.808-4.25-3.816-4.03-7.092.43-8.13601 14.54-11.34001071 14.29-11.34001071 3.24-.10800029 4.1 2.66400071 7.59 3.27600071z"/><path d="m914.221 134.928-.468 15.804c-5.615.252-9.826.288-14.721 0-2.123-3.204-3.671-4.752-6.874-6.876-.288-4.896-.288-9.072 0-14.76h17.816c1.331 2.844 3.707 3.384 4.211 5.832z"/></g></svg>